:SAMPLES-PER-SECOND 30
:FULLY-SPECIFIED
:DEGREES
338
root  36.6412 28.8869 -3.01792 -177.573 -12.8884 -166.495
RightUpLeg  -30.2994 -4.61549 -19.0149
RightLeg  30.9134 2.95305 1.50899
RightFoot  29.3819 -0.455964 2.11652
RightToes  -46.6658 -0.2738 -0.349598
Spine  11.0743 0.3023 1.05657
Spine1  20.8747 1.78466 -1.2256
HEad  21.8549 12.0601 -2.09597
LeftShoulder1  0 -2.42657e-020 -4.95415e-022
LeftArm  -24.264 4.59566 -76.0741
LeftForeArm  -165.863 -33.898 -6.3354
LeftHand  11.6252 -25.3581 -49.0733
RightShoulder  0 2.42657e-020 1.07489e-018
RightArm  -62.2011 13.9139 78.8898
RightForeArm  28.6728 51.3445 12.7697
RightHand  2.80039 27.5994 11.7388
LeftUpLeg  -39.2047 -12.2172 18.6956
LeftLeg  70.4313 3.9378 9.06532
LeftFoot  -24.43 -0.976235 -4.50733
LeftToes  -14.1371 1.18758e-006 1.19596e-007
339
root  37.8745 28.125 -3.14617 -174.985 -11.4179 -166.448
RightUpLeg  -32.1209 -2.95853 -21.8805
RightLeg  29.468 1.75176 0.837822
RightFoot  30.5121 -0.370513 1.73591
RightToes  -41.0884 -0.227236 -0.321188
Spine  11.9521 0.140402 1.27884
Spine1  21.8684 1.28874 -0.704809
HEad  21.0075 9.7309 -1.28871
LeftShoulder1  0 -2.42657e-020 -4.95415e-022
LeftArm  -24.4531 -2.95397 -75.8791
LeftForeArm  -164.021 -29.9884 -5.38844
LeftHand  11.5806 -24.9855 -49.5671
RightShoulder  0 2.42657e-020 1.07489e-018
RightArm  -59.9095 18.2625 81.7369
RightForeArm  33.3287 47.294 11.0328
RightHand  1.39331 29.3142 5.69483
LeftUpLeg  -43.0855 -9.0025 21.7976
LeftLeg  73.9331 3.02263 8.33663
LeftFoot  -25.0721 -0.989559 -4.44823
LeftToes  -18.3972 1.18758e-006 1.19596e-007
340
root  39.1755 27.4219 -3.34602 -172.521 -10.1726 -167.35
RightUpLeg  -33.8563 2.15453 -25.9955
RightLeg  30.0919 0.090798 0.0361904
RightFoot  32.1417 -0.214474 1.122
RightToes  -42.4339 -0.238213 -0.328454
Spine  13.3155 0.396808 1.2546
Spine1  23.4547 1.45112 -0.221886
HEad  19.5585 5.91999 -0.217068
LeftShoulder1  0 -2.42657e-020 -4.95415e-022
LeftArm  -26.7501 -11.7234 -77.8339
LeftForeArm  -160.926 -25.7093 -4.43439
LeftHand  11.5898 -25.2978 -49.047
RightShoulder  0 2.42657e-020 1.07489e-018
RightArm  -55.7277 21.5097 83.5155
RightForeArm  38.6903 44.0179 9.81562
RightHand  -0.438153 30.1965 -1.2542
LeftUpLeg  -45.6789 -6.72909 24.0731
LeftLeg  76.0004 2.47859 7.70407
LeftFoot  -25.2194 -1.01516 -4.53571
LeftToes  -24.0504 1.18758e-006 1.19596e-007
341
root  40.6854 26.7653 -3.5083 -169.916 -8.82608 -168.24
RightUpLeg  -37.2397 2.45286 -27.1813
RightLeg  35.1262 0.591548 0.346733
RightFoot  27.9517 -0.349979 1.78365
RightToes  -50.7902 -0.309894 -0.367623
Spine  14.8228 1.1715 1.25397
Spine1  25.26 2.94568 -0.165531
HEad  17.6886 2.10799 1.49473
LeftShoulder1  0 -2.42657e-020 -4.95415e-022
LeftArm  -28.3822 -20.0501 -80.6989
LeftForeArm  -159.806 -22.4442 -3.7525
LeftHand  11.664 -25.6175 -48.7653
RightShoulder  0 2.42657e-020 1.07489e-018
RightArm  -50.8053 26.8319 83.3793
RightForeArm  43.1001 36.0358 7.35666
RightHand  -2.14368 30.36 -7.52084
LeftUpLeg  -47.7927 -3.89667 26.5177
LeftLeg  77.1263 2.15406 7.18318
LeftFoot  -24.868 -1.03651 -4.69852
LeftToes  -28.9706 1.18758e-006 1.19596e-007
342
root  42.2881 26.228 -3.6135 -166.759 -8.15831 -169.839
RightUpLeg  -41.6498 -5.6205 -24.9242
RightLeg  41.2718 0.206357 0.133859
RightFoot  20.0044 -0.291461 2.02996
RightToes  -56.415 -0.361019 -0.38793
Spine  16.2203 1.71523 0.946507
Spine1  26.7737 4.46002 -1.32934
HEad  15.8671 -0.630281 3.34821
LeftShoulder1  0 -2.42657e-020 -4.95415e-022
LeftArm  -28.0391 -26.5064 -82.8904
LeftForeArm  -163.872 -20.668 -3.39587
LeftHand  12.0818 -26.5094 -48.7654
RightShoulder  0 2.42657e-020 1.07489e-018
RightArm  -46.648 34.9392 83.4472
RightForeArm  46.5309 23.8667 4.4496
RightHand  -2.65609 29.5835 -9.66675
LeftUpLeg  -49.9564 -1.89212 28.3794
LeftLeg  76.7661 2.16334 7.05295
LeftFoot  -23.6484 -1.03432 -4.93767
LeftToes  -32.7432 1.18758e-006 1.19596e-007
343
root  43.9642 25.9674 -3.72089 -163.476 -7.05951 -171.523
RightUpLeg  -47.8145 -14.9645 -20.0272
RightLeg  46.14 1.20483 1.06651
RightFoot  12.7889 -0.245539 2.56809
RightToes  -58.5434 -0.380847 -0.394291
Spine  17.4698 2.23454 0.335842
Spine1  28.0681 5.72251 -2.48901
HEad  13.874 -2.80978 5.523
LeftShoulder1  0 -2.42657e-020 -4.95415e-022
LeftArm  -26.1276 -31.3793 -83.8681
LeftForeArm  -167.572 -19.6025 -3.18698
LeftHand  12.4856 -27.8447 -48.0025
RightShoulder  0 2.42657e-020 1.07489e-018
RightArm  -50.3089 43.9714 84.664
RightForeArm  55.5446 12.6933 2.23909
RightHand  -2.26759 26.7395 -9.15205
LeftUpLeg  -50.7683 -0.26132 30.0255
LeftLeg  74.3358 2.68306 7.57485
LeftFoot  -21.3389 -0.990358 -5.25313
LeftToes  -36.6432 1.18758e-006 1.19596e-007
344
root  45.7725 26.0365 -3.82229 -160.221 -5.58412 -172.432
RightUpLeg  -55.1975 -18.7098 -14.9457
RightLeg  51.2142 2.66243 2.85543
RightFoot  6.93661 -0.141262 2.70773
RightToes  -57.5946 -0.371979 -0.391547
Spine  17.9832 2.84804 -0.356529
Spine1  28.3532 6.85251 -3.16906
HEad  12.3241 -4.51969 7.35494
LeftShoulder1  0 -2.42657e-020 -4.95415e-022
LeftArm  -26.5766 -34.7371 -84.0496
LeftForeArm  -168.818 -18.2682 -2.92804
LeftHand  12.6173 -28.9258 -46.7816
RightShoulder  0 2.42657e-020 1.07489e-018
RightArm  -54.8968 50.1583 85.6867
RightForeArm  67.0384 5.24354 0.871253
RightHand  -0.873197 25.15 -3.54389
LeftUpLeg  -50.2924 1.95273 32.0858
LeftLeg  70.0363 3.66328 8.28681
LeftFoot  -17.4082 -0.807402 -5.27026
LeftToes  -40.0239 1.18758e-006 1.19596e-007
345
root  47.7663 26.3718 -4.00408 -157.506 -4.46629 -172.658
RightUpLeg  -61.9369 -15.71 -11.84
RightLeg  57.4609 1.07001 1.38555
RightFoot  4.39527 -0.0740024 2.30541
RightToes  -54.5734 -0.344064 -0.381835
Spine  18.096 3.15944 -1.04737
Spine1  28.3393 7.34871 -4.01824
HEad  11.1551 -4.35903 8.43755
LeftShoulder1  0 -2.42657e-020 -4.95415e-022
LeftArm  -29.7753 -36.2851 -81.7504
LeftForeArm  -172.2 -18.1962 -2.91647
LeftHand  13.2789 -30.3877 -46.7796
RightShoulder  0 2.42657e-020 1.07489e-018
RightArm  -40.665 54.6963 89.9957
RightForeArm  71.4929 0.0286495 -0.0557825
RightHand  1.3935 21.5931 7.67005
LeftUpLeg  -48.6081 4.36419 34.5857
LeftLeg  64.3323 4.91948 8.6589
LeftFoot  -11.5283 -0.467624 -4.63003
LeftToes  -43.2721 1.18758e-006 1.19596e-007
346
root  49.8211 26.898 -4.46308 -156.237 -5.06337 -173.208
RightUpLeg  -63.8905 -12.6742 -9.68131
RightLeg  60.5695 -0.716781 -1.18976
RightFoot  0.70041 -0.0109758 2.17092
RightToes  -51.2572 -0.31406 -0.369499
Spine  18.5429 2.6351 -1.5094
Spine1  29.0227 6.63153 -5.43072
HEad  11.6337 -2.90484 9.18819
LeftShoulder1  0 -2.42657e-020 -4.95415e-022
LeftArm  -34.689 -36.8039 -76.2557
LeftForeArm  -176.473 -18.2588 -2.9325
LeftHand  13.8057 -31.5982 -46.7062
RightShoulder  0 2.42657e-020 1.07489e-018
RightArm  -31.3079 55.1161 98.6207
RightForeArm  76.9131 1.65976 0.214902
RightHand  2.39484 21.8223 12.7503
LeftUpLeg  -46.6688 3.29773 37.4051
LeftLeg  58.8555 6.49583 9.22641
LeftFoot  -2.87762 -0.0805432 -3.20586
LeftToes  -44.5763 1.18758e-006 1.19596e-007
347
root  51.8595 27.418 -5.02836 -155.673 -7.7318 -174.708
RightUpLeg  -62.5857 -12.1023 -7.97273
RightLeg  61.1841 -1.75691 -2.84922
RightFoot  -4.60988 0.0816478 2.40619
RightToes  -50.0036 -0.302912 -0.364387
Spine  18.5123 1.20362 -1.75492
Spine1  29.2328 4.10606 -6.50538
HEad  13.7806 -2.34229 10.9499
LeftShoulder1  0 -2.42657e-020 -4.95415e-022
LeftArm  -41.1165 -36.2895 -69.7558
LeftForeArm  -178.225 -17.3523 -2.76024
LeftHand  14.008 -33.6198 -44.6369
RightShoulder  0 2.42657e-020 1.07489e-018
RightArm  -15.7358 49.4857 103.801
RightForeArm  70.1381 10.4243 1.78983
RightHand  2.44097 25.3982 11.1745
LeftUpLeg  -47.0239 -0.766589 39.7383
LeftLeg  55.1484 8.55927 10.577
LeftFoot  7.26477 0.0437135 -0.688598
LeftToes  -39.5046 1.18758e-006 1.19596e-007
348
root  53.5626 28.0123 -5.55123 -155.47 -7.59758 -176.054
RightUpLeg  -62.5192 -10.2003 -6.49346
RightLeg  62.1045 -2.47685 -4.12026
RightFoot  -6.60214 0.119243 2.44496
RightToes  -46.3139 -0.270782 -0.347941
Spine  17.7622 0.650565 -2.53505
Spine1  28.4109 2.71219 -7.36805
HEad  16.0543 -2.59034 11.602
LeftShoulder1  0 -2.42657e-020 -4.95415e-022
LeftArm  -47.5337 -32.8487 -64.8802
LeftForeArm  -178.308 -17.4601 -2.78096
LeftHand  12.3154 -36.5785 -36.5318
RightShoulder  0 2.42657e-020 1.07489e-018
RightArm  1.78427 41.2179 99.9499
RightForeArm  56.9681 20.9957 3.83615
RightHand  0.259929 25.4327 1.5222
LeftUpLeg  -47.1394 -5.71317 40.1688
LeftLeg  55.278 8.36338 10.3888
LeftFoot  11.0387 -0.0516464 0.534465
LeftToes  -24.2561 1.18758e-006 1.19596e-007
